<svg width="25" height="25" viewBox="0 0 25 25" fill="none" xmlns="http://www.w3.org/2000/svg">
<g clip-path="url(#clip0)">
<path d="M24.857 4.22914L22.9441 2.31625C22.7535 2.12557 22.4443 2.12567 22.2536 2.31625L20.9799 3.58993C20.9155 3.39511 20.7318 3.25424 20.5156 3.25424H13.6629C12.7276 3.25424 11.9 3.72396 11.4035 4.43993C10.907 3.72396 10.0794 3.25424 9.14409 3.25424H2.29087C2.02119 3.25424 1.802 3.47343 1.802 3.7431V4.55839H0.488281C0.218604 4.55839 0 4.77704 0 5.04667V22.3384C0 22.608 0.218604 22.8267 0.488281 22.8267H22.3182C22.5878 22.8267 22.8064 22.608 22.8064 22.3384V6.9703L24.857 4.91971C25.0477 4.72899 25.0477 4.41981 24.857 4.22914ZM10.9149 21.8501H0.976562V5.53495H1.802V19.8371C1.802 20.1068 2.02061 20.3254 2.29028 20.3254H10.9149V21.8501ZM10.9149 19.3489H2.77856V17.9642H9.14409C9.81191 17.9642 10.4338 18.2057 10.9149 18.6478V19.3489ZM9.14409 16.9876H2.77856V4.2308H9.14409C10.1208 4.2308 10.9152 5.02533 10.9152 6.00194V14.1797C10.9152 14.4494 11.1338 14.668 11.4035 14.668C11.6732 14.668 11.8918 14.4494 11.8918 14.1797V6.00199C11.8918 5.02538 12.6863 4.23085 13.6629 4.23085H20.0278V4.54193L14.5188 10.051C14.4521 10.1177 14.4061 10.2024 14.3865 10.2948L13.8705 12.7237C13.8361 12.8854 13.8859 13.0535 14.0028 13.1704C14.0953 13.2629 14.2822 13.33 14.4495 13.3027L16.8784 12.7868C16.9708 12.7672 17.0554 12.7212 17.1222 12.6544L20.0278 9.74882V16.9876H13.6629C12.8377 16.9876 12.0371 17.2726 11.4035 17.7816C10.7699 17.2726 9.96934 16.9876 9.14409 16.9876ZM15.3118 10.7448C15.5102 10.9432 15.7572 11.0792 16.0322 11.1451C16.0927 11.4129 16.2279 11.6609 16.4284 11.8614C16.4347 11.8677 16.441 11.8739 16.4474 11.8801L14.9819 12.1914L15.2932 10.7259C15.2994 10.7322 15.3055 10.7386 15.3118 10.7448ZM20.0279 17.9642V19.3489H11.8915V18.6484C12.3728 18.2058 12.9949 17.9642 13.663 17.9642H20.0279ZM21.8299 21.8501H11.8915V20.3254H20.5162C20.7858 20.3254 21.0044 20.1068 21.0044 19.8371V8.7889C21.0044 8.78344 21.0043 8.77802 21.0042 8.7726L21.8299 7.94686V21.8501ZM17.1758 11.2199C17.1558 11.2051 17.1369 11.1887 17.119 11.1709C17.0102 11.062 16.9582 10.9118 16.9764 10.7586C16.9934 10.6159 16.9466 10.473 16.8485 10.3679C16.756 10.2687 16.6266 10.2127 16.4916 10.2127C16.4836 10.2127 16.4756 10.2129 16.4676 10.2133C16.3344 10.2203 16.1456 10.1975 16.0023 10.0542C15.9845 10.0364 15.9682 10.0174 15.9534 9.9975L21.088 4.86288L22.3104 6.08524L17.1758 11.2199ZM23.0009 5.39467L21.7786 4.1723L22.5988 3.35204L23.8212 4.5744L23.0009 5.39467Z" fill="#59687D"/>
<path d="M11.8823 15.9727C11.876 15.9414 11.8667 15.9106 11.8545 15.8809C11.8423 15.8516 11.8271 15.8232 11.8096 15.7969C11.7915 15.77 11.7715 15.7451 11.749 15.7227C11.7261 15.7002 11.7012 15.6797 11.6748 15.6616C11.6479 15.644 11.6196 15.6294 11.5903 15.6172C11.561 15.605 11.5303 15.5952 11.499 15.5894C11.436 15.5767 11.3711 15.5767 11.3081 15.5894C11.2769 15.5952 11.2461 15.605 11.2168 15.6172C11.1875 15.6294 11.1592 15.644 11.1323 15.6616C11.106 15.6797 11.0806 15.7002 11.0581 15.7227C11.0356 15.7451 11.0151 15.77 10.9976 15.7969C10.9799 15.8232 10.9648 15.8516 10.9526 15.8809C10.9404 15.9106 10.9312 15.9414 10.9248 15.9727C10.9185 16.004 10.915 16.0362 10.915 16.0679C10.915 16.0996 10.9185 16.1318 10.9248 16.1631C10.9311 16.1944 10.9404 16.2251 10.9526 16.2544C10.9648 16.2842 10.98 16.3125 10.9976 16.3389C11.0151 16.3657 11.0356 16.3906 11.0581 16.4131C11.0806 16.4355 11.106 16.4561 11.1323 16.4736C11.1592 16.4912 11.1875 16.5063 11.2168 16.5186C11.2461 16.5308 11.2769 16.54 11.3081 16.5464C11.3398 16.5527 11.3716 16.5561 11.4033 16.5561C11.4355 16.5561 11.4673 16.5527 11.499 16.5464C11.5303 16.54 11.561 16.5308 11.5903 16.5186C11.6196 16.5063 11.6479 16.4912 11.6748 16.4736C11.7012 16.4561 11.7261 16.4355 11.749 16.4131C11.8398 16.3223 11.8921 16.1963 11.8921 16.0679C11.8921 16.0362 11.8887 16.004 11.8823 15.9727Z" fill="#59687D"/>
</g>
<defs>
<clipPath id="clip0">
<rect width="25" height="25" fill="white"/>
</clipPath>
</defs>
</svg>
