<svg width="50" height="42" viewBox="0 0 50 42" fill="none" xmlns="http://www.w3.org/2000/svg">
<path d="M49.714 4.45829L45.8882 0.63251C45.5069 0.251163 44.8886 0.251358 44.5071 0.63251L41.9598 3.17987C41.8311 2.79023 41.4637 2.50849 41.0312 2.50849H27.3259C25.4553 2.50849 23.8 3.44794 22.807 4.87987C21.8141 3.44794 20.1588 2.50849 18.2882 2.50849H4.58174C4.04238 2.50849 3.604 2.94687 3.604 3.48622V5.11679H0.976562C0.437207 5.11679 0 5.55409 0 6.09335V40.6768C0 41.2161 0.437207 41.6534 0.976562 41.6534H44.6363C45.1757 41.6534 45.6129 41.2161 45.6129 40.6768V9.94062L49.7141 5.83944C50.0954 5.458 50.0953 4.83964 49.714 4.45829ZM21.8299 39.7003H1.95312V7.06991H3.604V35.6743C3.604 36.2136 4.04121 36.6509 4.58057 36.6509H21.8299V39.7003ZM21.8299 34.6978H5.55713V31.9285H18.2882C19.6238 31.9285 20.8676 32.4113 21.8299 33.2957V34.6978ZM18.2882 29.9753H5.55713V4.46161H18.2882C20.2415 4.46161 21.8305 6.05067 21.8305 8.0039V24.3595C21.8305 24.8987 22.2677 25.336 22.807 25.336C23.3464 25.336 23.7836 24.8987 23.7836 24.3595V8.00399C23.7836 6.05077 25.3727 4.46171 27.3259 4.46171H40.0557V5.08388L29.0376 16.1019C28.9041 16.2354 28.8121 16.4049 28.7729 16.5895L27.7409 21.4474C27.6722 21.7708 27.7718 22.107 28.0056 22.3408C28.1906 22.5259 28.5645 22.6601 28.899 22.6055L33.7568 21.5735C33.9415 21.5344 34.1108 21.4424 34.2444 21.3089L40.0557 15.4976V29.9753H27.3259C25.6754 29.9753 24.0742 30.5453 22.807 31.5632C21.5397 30.5452 19.9387 29.9753 18.2882 29.9753ZM30.6236 17.4896C31.0204 17.8864 31.5145 18.1584 32.0644 18.2902C32.1854 18.8259 32.4559 19.3218 32.8568 19.7228C32.8694 19.7353 32.882 19.7478 32.8948 19.7601L29.9638 20.3828L30.5864 17.4517C30.5987 17.4644 30.611 17.4771 30.6236 17.4896ZM40.0558 31.9285V34.6978H23.783V33.2968C24.7455 32.4117 25.9897 31.9285 27.326 31.9285H40.0558ZM43.6598 39.7003H23.783V36.6509H41.0323C41.5717 36.6509 42.0089 36.2136 42.0089 35.6743V13.5778C42.0089 13.5669 42.0086 13.556 42.0083 13.5452L43.6598 11.8937V39.7003ZM34.3516 18.4397C34.3116 18.4101 34.2737 18.3774 34.238 18.3418C34.0204 18.1241 33.9164 17.8236 33.9528 17.5173C33.9867 17.2318 33.8932 16.946 33.6971 16.7358C33.5119 16.5374 33.2531 16.4255 32.9831 16.4255C32.9672 16.4255 32.9513 16.4259 32.9353 16.4267C32.6688 16.4406 32.2912 16.3951 32.0047 16.1085C31.969 16.0728 31.9363 16.0349 31.9068 15.995L42.1761 5.72577L44.6208 8.1705L34.3516 18.4397ZM46.0019 6.78935L43.5571 4.34462L45.1977 2.70409L47.6424 5.14882L46.0019 6.78935Z" fill="#59687D"/>
</svg>
