<svg width="50" height="50" viewBox="0 0 50 50" fill="none" xmlns="http://www.w3.org/2000/svg">
<path d="M41.7549 0H17.5884C17.1978 0 16.8236 0.155258 16.5474 0.431442L7.26738 9.71146C6.9912 9.98726 6.83594 10.3619 6.83594 10.7525V48.5275C6.83594 49.3408 7.49512 50 8.30841 50H41.7549C42.5682 50 43.2274 49.3408 43.2274 48.5275V1.47247C43.2274 0.65918 42.5682 0 41.7549 0ZM16.116 5.02739V9.27963H11.8637L16.116 5.02739ZM40.2824 47.0551H9.78088V12.2246H17.5884C18.4017 12.2246 19.0609 11.5654 19.0609 10.7521V2.94495H40.2824V47.0551Z" fill="#59687D"/>
<path d="M19.4559 16.3734L14.3678 27.4651C14.0287 28.2043 14.3533 29.0783 15.0923 29.4174C15.2914 29.5086 15.5 29.5517 15.7053 29.5517C16.2634 29.5517 16.797 29.2332 17.0446 28.693L18.4988 25.523H23.0898L24.5439 28.693C24.7915 29.2332 25.3252 29.5517 25.8833 29.5517C26.0885 29.5517 26.2972 29.5086 26.4963 29.4174C27.2356 29.0783 27.5598 28.2043 27.2207 27.4651L22.1327 16.3734C21.8927 15.8501 21.3697 15.5148 20.7945 15.5148C20.2188 15.5148 19.6958 15.8501 19.4559 16.3734ZM19.8499 22.578L20.7941 20.5193L21.7386 22.578H19.8499Z" fill="#59687D"/>
<path d="M29.335 21.0236H30.3738V22.0627C30.3738 22.8756 31.0329 23.5352 31.8462 23.5352C32.6595 23.5352 33.3187 22.8756 33.3187 22.0627V21.0236H34.3575C35.1707 21.0236 35.8299 20.3644 35.8299 19.5511C35.8299 18.7382 35.1707 18.0786 34.3575 18.0786H33.3187V17.0399C33.3187 16.2266 32.6595 15.5674 31.8462 15.5674C31.0329 15.5674 30.3738 16.2266 30.3738 17.0399V18.0786H29.335C28.5217 18.0786 27.8625 18.7382 27.8625 19.5511C27.8625 20.3644 28.5217 21.0236 29.335 21.0236Z" fill="#59687D"/>
<path d="M34.3575 32.4745H15.7059C14.8926 32.4745 14.2334 33.1337 14.2334 33.947C14.2334 34.7603 14.8926 35.4195 15.7059 35.4195H34.3575C35.1707 35.4195 35.8299 34.7603 35.8299 33.947C35.8299 33.1337 35.1707 32.4745 34.3575 32.4745Z" fill="#59687D"/>
<path d="M28.0056 36.9682H15.7059C14.8926 36.9682 14.2334 37.6274 14.2334 38.4407C14.2334 39.254 14.8926 39.9132 15.7059 39.9132H28.0056C28.8185 39.9132 29.4781 39.254 29.4781 38.4407C29.4781 37.6274 28.8189 36.9682 28.0056 36.9682Z" fill="#59687D"/>
</svg>
