<svg width="50" height="50" viewBox="0 0 50 50" fill="none" xmlns="http://www.w3.org/2000/svg">
<path d="M30.1728 7.22201C32.4847 8.67153 34.1058 11.1244 34.401 13.9717C35.3438 14.4122 36.3902 14.6655 37.4997 14.6655C41.55 14.6655 44.8328 11.3828 44.8328 7.33308C44.8328 3.28279 41.55 0 37.4997 0C33.4881 0.00124797 30.234 3.22538 30.1728 7.22201ZM25.3688 22.2364C29.4191 22.2364 32.7019 18.953 32.7019 14.9033C32.7019 10.8536 29.4184 7.57082 25.3688 7.57082C21.3191 7.57082 18.0344 10.8542 18.0344 14.9039C18.0344 18.9536 21.3191 22.2364 25.3688 22.2364ZM28.4793 22.7362H22.257C17.0797 22.7362 12.8678 26.9487 12.8678 32.1259V39.7354L12.8872 39.8546L13.4113 40.0187C18.3521 41.5625 22.6445 42.0772 26.1775 42.0772C33.0781 42.0772 37.0779 40.1098 37.3244 39.9844L37.8142 39.7367H37.8666V32.1259C37.8685 26.9487 33.6566 22.7362 28.4793 22.7362ZM40.6115 15.166H34.4372C34.3704 17.6363 33.3159 19.8609 31.648 21.4608C36.2498 22.8292 39.6169 27.0966 39.6169 32.1372V34.4821C45.7132 34.2587 49.2263 32.5309 49.4578 32.4148L49.9476 32.1665H50V24.5545C50 19.3779 45.7881 15.166 40.6115 15.166ZM12.5016 14.6668C13.9361 14.6668 15.2708 14.2481 16.4015 13.5349C16.7609 11.1906 18.0176 9.14202 19.8128 7.74679C19.8203 7.60951 19.8334 7.47348 19.8334 7.33496C19.8334 3.28466 16.55 0.00187182 12.5016 0.00187182C8.45064 0.00187182 5.16848 3.28466 5.16848 7.33496C5.16848 11.3834 8.45064 14.6668 12.5016 14.6668ZM19.0871 21.4608C17.4273 19.869 16.3765 17.6563 16.2998 15.2009C16.0708 15.1841 15.8443 15.166 15.6109 15.166H9.38912C4.21191 15.166 0 19.3779 0 24.5545V32.1652L0.0193436 32.2825L0.543492 32.4479C4.50705 33.6853 8.04443 34.2556 11.1169 34.4353V32.1372C11.1182 27.0966 14.484 22.8304 19.0871 21.4608Z" fill="#59687D"/>
</svg>
