<svg width="25" height="25" viewBox="0 0 25 25" fill="none" xmlns="http://www.w3.org/2000/svg">
<g clip-path="url(#clip0)">
<path d="M7.32123 7.76308L15.106 13.352C15.2945 13.4896 15.5493 13.5049 15.753 13.3979C15.9619 13.2909 16.0944 13.0769 16.0944 12.8425V10.3155C18.9424 10.3359 21.4388 10.6212 23.8333 14.8397C23.9454 15.0384 24.1543 15.1556 24.3785 15.1556C24.4294 15.1556 24.4855 15.1505 24.5364 15.1352C24.8115 15.0639 25 14.8142 25 14.534C25 12.8986 24.8574 10.4888 23.6448 8.40502C22.2132 5.95444 19.676 4.55848 16.0944 4.25279V1.69013C16.0944 1.45577 15.9619 1.24179 15.7581 1.1348C15.5493 1.02781 15.2996 1.04819 15.1111 1.18066L7.32123 6.74922C7.1582 6.8664 7.0614 7.05491 7.0614 7.2587C7.0614 7.45739 7.1582 7.6459 7.32123 7.76308ZM14.8462 2.90268V4.83869C14.8462 5.16985 15.106 5.44496 15.4372 5.46025C21.449 5.76084 23.171 9.06224 23.6143 12.2821C21.0261 9.06733 18.2087 9.06733 15.4677 9.06733C15.3047 9.06733 15.1417 9.13357 15.0245 9.25074C14.9073 9.36792 14.8411 9.52586 14.8411 9.69399V11.63L8.75286 7.2587L14.8462 2.90268Z" fill="#59687D"/>
<path d="M0.621628 23.9338H19.513C19.8594 23.9338 20.1396 23.6536 20.1396 23.3072V13.7239C20.1396 13.3775 19.8594 13.0973 19.513 13.0973C19.1665 13.0973 18.8863 13.3775 18.8863 13.7239V22.6856H1.24319V7.89044H4.42231C4.76876 7.89044 5.04897 7.61023 5.04897 7.26379C5.04897 6.91734 4.76876 6.63713 4.42231 6.63713H0.621628C0.275185 6.63713 6.839e-05 6.91734 6.839e-05 7.26379V23.3072C-0.00502636 23.6587 0.275185 23.9338 0.621628 23.9338Z" fill="#59687D"/>
</g>
<defs>
<clipPath id="clip0">
<rect width="25" height="25" fill="white"/>
</clipPath>
</defs>
</svg>
