<svg width="24" height="27" viewBox="0 0 24 27" fill="none" xmlns="http://www.w3.org/2000/svg">
<g clip-path="url(#clip0)">
<path d="M14.2739 6.12517C13.7957 5.58493 13.7957 4.73441 14.2739 4.19417C14.752 3.67218 15.5048 3.67218 15.983 4.19417L23.1458 12.2856C23.3676 12.5363 23.5044 12.8843 23.5044 13.27C23.5044 13.6557 23.3676 14.0037 23.1458 14.2556L15.983 22.347C15.5048 22.8873 14.752 22.8873 14.2739 22.347C13.7957 21.8068 13.7957 20.9563 14.2739 20.416L19.4023 14.6413H1.19649C0.529858 14.6425 0 14.0244 0 13.2712C0 12.518 0.529858 11.9194 1.19649 11.9194H19.4012L14.2739 6.12517Z" fill="#A0AA9B"/>
</g>
<defs>
<clipPath id="clip0">
<rect width="26.5558" height="23.5044" fill="white" transform="translate(0 26.5558) rotate(-90)"/>
</clipPath>
</defs>
</svg>
