<svg width="129" height="66" viewBox="0 0 129 66" fill="none" xmlns="http://www.w3.org/2000/svg">
<g filter="url(#filter0_d)">
<path d="M29.1527 37.4287C28.2856 38.6709 27.0727 39.6025 25.5141 40.2236C23.9672 40.833 22.1625 41.1377 20.1 41.1377C18.0141 41.1377 16.1625 40.6514 14.5453 39.6787C12.9281 38.6943 11.6742 37.2998 10.7836 35.4951C9.90469 33.6904 9.45352 31.5986 9.43008 29.2197V26.9873C9.43008 23.1318 10.3266 20.1436 12.1195 18.0225C13.9242 15.9014 16.4555 14.8408 19.7133 14.8408C22.3852 14.8408 24.5356 15.5264 26.1645 16.8975C27.7934 18.2568 28.7895 20.1904 29.1527 22.6982H25.7777C25.1449 19.3115 23.1293 17.6182 19.7309 17.6182C17.4691 17.6182 15.7523 18.415 14.5805 20.0088C13.4203 21.5908 12.8344 23.8877 12.8227 26.8994V28.9912C12.8227 31.8623 13.4789 34.1475 14.7914 35.8467C16.1039 37.5342 17.8793 38.3779 20.1176 38.3779C21.3832 38.3779 22.4906 38.2373 23.4398 37.9561C24.3891 37.6748 25.1742 37.2002 25.7953 36.5322V30.7842H19.8715V28.042H29.1527V37.4287ZM43.4789 24.6846C42.9867 24.6025 42.4535 24.5615 41.8793 24.5615C39.7465 24.5615 38.2992 25.4697 37.5375 27.2861V40.7861H34.2856V21.7666H37.4496L37.5023 23.9639C38.5688 22.2646 40.0805 21.415 42.0375 21.415C42.6703 21.415 43.1508 21.4971 43.4789 21.6611V24.6846ZM57.5238 40.7861C57.3363 40.4111 57.184 39.7432 57.0668 38.7822C55.5551 40.3525 53.7504 41.1377 51.6527 41.1377C49.7777 41.1377 48.2367 40.6104 47.0297 39.5557C45.8344 38.4893 45.2367 37.1416 45.2367 35.5127C45.2367 33.5322 45.9867 31.9971 47.4867 30.9072C48.9984 29.8057 51.1195 29.2549 53.85 29.2549H57.0141V27.7607C57.0141 26.624 56.6742 25.7217 55.9945 25.0537C55.3148 24.374 54.3129 24.0342 52.9887 24.0342C51.8285 24.0342 50.8559 24.3271 50.0707 24.9131C49.2856 25.499 48.893 26.208 48.893 27.04H45.6234C45.6234 26.0908 45.9574 25.1768 46.6254 24.2979C47.3051 23.4072 48.2191 22.7041 49.3676 22.1885C50.5277 21.6729 51.7992 21.415 53.182 21.415C55.3734 21.415 57.0902 21.9658 58.3324 23.0674C59.5746 24.1572 60.2191 25.6631 60.266 27.585V36.3389C60.266 38.085 60.4887 39.4736 60.934 40.5049V40.7861H57.5238ZM52.1273 38.3076C53.1469 38.3076 54.1137 38.0439 55.0277 37.5166C55.9418 36.9893 56.6039 36.3037 57.0141 35.46V31.5576H54.4652C50.4809 31.5576 48.4887 32.7236 48.4887 35.0557C48.4887 36.0752 48.8285 36.8721 49.5082 37.4463C50.1879 38.0205 51.0609 38.3076 52.1273 38.3076ZM64.5727 31.1182C64.5727 28.2002 65.2641 25.8564 66.6469 24.0869C68.0297 22.3057 69.8402 21.415 72.0785 21.415C74.3051 21.415 76.0688 22.1768 77.3695 23.7002V13.7861H80.6215V40.7861H77.6332L77.475 38.7471C76.1742 40.3408 74.3637 41.1377 72.0434 41.1377C69.8402 41.1377 68.0414 40.2354 66.6469 38.4307C65.2641 36.626 64.5727 34.2705 64.5727 31.3643V31.1182ZM67.8246 31.4873C67.8246 33.6436 68.2699 35.3311 69.1606 36.5498C70.0512 37.7686 71.2816 38.3779 72.852 38.3779C74.9145 38.3779 76.4203 37.4521 77.3695 35.6006V26.8643C76.3969 25.0713 74.9027 24.1748 72.8871 24.1748C71.2934 24.1748 70.0512 24.79 69.1606 26.0205C68.2699 27.251 67.8246 29.0732 67.8246 31.4873ZM89.2172 40.7861H85.9652V21.7666H89.2172V40.7861ZM85.7016 16.7217C85.7016 16.1943 85.8598 15.749 86.1762 15.3857C86.5043 15.0225 86.9848 14.8408 87.6176 14.8408C88.2504 14.8408 88.7309 15.0225 89.059 15.3857C89.3871 15.749 89.5512 16.1943 89.5512 16.7217C89.5512 17.249 89.3871 17.6885 89.059 18.04C88.7309 18.3916 88.2504 18.5674 87.6176 18.5674C86.9848 18.5674 86.5043 18.3916 86.1762 18.04C85.8598 17.6885 85.7016 17.249 85.7016 16.7217ZM96.0375 40.7861V24.2803H93.0316V21.7666H96.0375V19.8154C96.0375 17.7764 96.5824 16.2002 97.6723 15.0869C98.7621 13.9736 100.303 13.417 102.295 13.417C103.045 13.417 103.789 13.5166 104.528 13.7158L104.352 16.3525C103.801 16.2471 103.215 16.1943 102.594 16.1943C101.539 16.1943 100.725 16.5049 100.151 17.126C99.5766 17.7354 99.2895 18.6143 99.2895 19.7627V21.7666H103.35V24.2803H99.2895V40.7861H96.0375ZM113.176 36.0225L117.606 21.7666H121.086L113.44 43.7217C112.256 46.8857 110.375 48.4678 107.797 48.4678L107.182 48.415L105.969 48.1865V45.5498L106.848 45.6201C107.95 45.6201 108.805 45.3975 109.414 44.9521C110.036 44.5068 110.545 43.6924 110.944 42.5088L111.664 40.5752L104.879 21.7666H108.43L113.176 36.0225Z" fill="#666666"/>
</g>
<g filter="url(#filter1_d)">
<path d="M84.7717 13.2882C90.0668 25.5206 86.8898 7.9698 98.186 4.77875" stroke="#1BB1A5" stroke-width="3" stroke-linecap="round"/>
</g>
<defs>
<filter id="filter0_d" x="7.43005" y="12.417" width="117.656" height="41.0508" filterUnits="userSpaceOnUse" color-interpolation-filters="sRGB">
<feFlood flood-opacity="0" result="BackgroundImageFix"/>
<feColorMatrix in="SourceAlpha" type="matrix" values="0 0 0 0 0 0 0 0 0 0 0 0 0 0 0 0 0 0 127 0"/>
<feOffset dx="1" dy="2"/>
<feGaussianBlur stdDeviation="1.5"/>
<feColorMatrix type="matrix" values="0 0 0 0 0 0 0 0 0 0 0 0 0 0 0 0 0 0 0.2 0"/>
<feBlend mode="normal" in2="BackgroundImageFix" result="effect1_dropShadow"/>
<feBlend mode="normal" in="SourceGraphic" in2="effect1_dropShadow" result="shape"/>
</filter>
<filter id="filter1_d" x="79.2714" y="0.278362" width="26.415" height="25.79" filterUnits="userSpaceOnUse" color-interpolation-filters="sRGB">
<feFlood flood-opacity="0" result="BackgroundImageFix"/>
<feColorMatrix in="SourceAlpha" type="matrix" values="0 0 0 0 0 0 0 0 0 0 0 0 0 0 0 0 0 0 127 0"/>
<feOffset dx="1" dy="2"/>
<feGaussianBlur stdDeviation="2.5"/>
<feColorMatrix type="matrix" values="0 0 0 0 0 0 0 0 0 0 0 0 0 0 0 0 0 0 0.2 0"/>
<feBlend mode="normal" in2="BackgroundImageFix" result="effect1_dropShadow"/>
<feBlend mode="normal" in="SourceGraphic" in2="effect1_dropShadow" result="shape"/>
</filter>
</defs>
</svg>
