<svg width="129" height="69" viewBox="0 0 129 69" fill="none" xmlns="http://www.w3.org/2000/svg">
<g filter="url(#filter0_d)">
<path d="M29.1527 40.4287C28.2856 41.6709 27.0727 42.6025 25.5141 43.2236C23.9672 43.833 22.1625 44.1377 20.1 44.1377C18.0141 44.1377 16.1625 43.6514 14.5453 42.6787C12.9281 41.6943 11.6742 40.2998 10.7836 38.4951C9.90469 36.6904 9.45352 34.5986 9.43008 32.2197V29.9873C9.43008 26.1318 10.3266 23.1436 12.1195 21.0225C13.9242 18.9014 16.4555 17.8408 19.7133 17.8408C22.3852 17.8408 24.5356 18.5264 26.1645 19.8975C27.7934 21.2568 28.7895 23.1904 29.1527 25.6982H25.7777C25.1449 22.3115 23.1293 20.6182 19.7309 20.6182C17.4691 20.6182 15.7523 21.415 14.5805 23.0088C13.4203 24.5908 12.8344 26.8877 12.8227 29.8994V31.9912C12.8227 34.8623 13.4789 37.1475 14.7914 38.8467C16.1039 40.5342 17.8793 41.3779 20.1176 41.3779C21.3832 41.3779 22.4906 41.2373 23.4398 40.9561C24.3891 40.6748 25.1742 40.2002 25.7953 39.5322V33.7842H19.8715V31.042H29.1527V40.4287ZM43.4789 27.6846C42.9867 27.6025 42.4535 27.5615 41.8793 27.5615C39.7465 27.5615 38.2992 28.4697 37.5375 30.2861V43.7861H34.2856V24.7666H37.4496L37.5023 26.9639C38.5688 25.2646 40.0805 24.415 42.0375 24.415C42.6703 24.415 43.1508 24.4971 43.4789 24.6611V27.6846ZM57.5238 43.7861C57.3363 43.4111 57.184 42.7432 57.0668 41.7822C55.5551 43.3525 53.7504 44.1377 51.6527 44.1377C49.7777 44.1377 48.2367 43.6104 47.0297 42.5557C45.8344 41.4893 45.2367 40.1416 45.2367 38.5127C45.2367 36.5322 45.9867 34.9971 47.4867 33.9072C48.9984 32.8057 51.1195 32.2549 53.85 32.2549H57.0141V30.7607C57.0141 29.624 56.6742 28.7217 55.9945 28.0537C55.3148 27.374 54.3129 27.0342 52.9887 27.0342C51.8285 27.0342 50.8559 27.3271 50.0707 27.9131C49.2856 28.499 48.893 29.208 48.893 30.04H45.6234C45.6234 29.0908 45.9574 28.1768 46.6254 27.2979C47.3051 26.4072 48.2191 25.7041 49.3676 25.1885C50.5277 24.6729 51.7992 24.415 53.182 24.415C55.3734 24.415 57.0902 24.9658 58.3324 26.0674C59.5746 27.1572 60.2191 28.6631 60.266 30.585V39.3389C60.266 41.085 60.4887 42.4736 60.934 43.5049V43.7861H57.5238ZM52.1273 41.3076C53.1469 41.3076 54.1137 41.0439 55.0277 40.5166C55.9418 39.9893 56.6039 39.3037 57.0141 38.46V34.5576H54.4652C50.4809 34.5576 48.4887 35.7236 48.4887 38.0557C48.4887 39.0752 48.8285 39.8721 49.5082 40.4463C50.1879 41.0205 51.0609 41.3076 52.1273 41.3076ZM64.5727 34.1182C64.5727 31.2002 65.2641 28.8564 66.6469 27.0869C68.0297 25.3057 69.8402 24.415 72.0785 24.415C74.3051 24.415 76.0688 25.1768 77.3695 26.7002V16.7861H80.6215V43.7861H77.6332L77.475 41.7471C76.1742 43.3408 74.3637 44.1377 72.0434 44.1377C69.8402 44.1377 68.0414 43.2354 66.6469 41.4307C65.2641 39.626 64.5727 37.2705 64.5727 34.3643V34.1182ZM67.8246 34.4873C67.8246 36.6436 68.2699 38.3311 69.1606 39.5498C70.0512 40.7686 71.2816 41.3779 72.852 41.3779C74.9145 41.3779 76.4203 40.4521 77.3695 38.6006V29.8643C76.3969 28.0713 74.9027 27.1748 72.8871 27.1748C71.2934 27.1748 70.0512 27.79 69.1606 29.0205C68.2699 30.251 67.8246 32.0732 67.8246 34.4873ZM89.2172 43.7861H85.9652V24.7666H89.2172V43.7861ZM85.7016 19.7217C85.7016 19.1943 85.8598 18.749 86.1762 18.3857C86.5043 18.0225 86.9848 17.8408 87.6176 17.8408C88.2504 17.8408 88.7309 18.0225 89.059 18.3857C89.3871 18.749 89.5512 19.1943 89.5512 19.7217C89.5512 20.249 89.3871 20.6885 89.059 21.04C88.7309 21.3916 88.2504 21.5674 87.6176 21.5674C86.9848 21.5674 86.5043 21.3916 86.1762 21.04C85.8598 20.6885 85.7016 20.249 85.7016 19.7217ZM96.0375 43.7861V27.2803H93.0316V24.7666H96.0375V22.8154C96.0375 20.7764 96.5824 19.2002 97.6723 18.0869C98.7621 16.9736 100.303 16.417 102.295 16.417C103.045 16.417 103.789 16.5166 104.528 16.7158L104.352 19.3525C103.801 19.2471 103.215 19.1943 102.594 19.1943C101.539 19.1943 100.725 19.5049 100.151 20.126C99.5766 20.7354 99.2895 21.6143 99.2895 22.7627V24.7666H103.35V27.2803H99.2895V43.7861H96.0375ZM113.176 39.0225L117.606 24.7666H121.086L113.44 46.7217C112.256 49.8857 110.375 51.4678 107.797 51.4678L107.182 51.415L105.969 51.1865V48.5498L106.848 48.6201C107.95 48.6201 108.805 48.3975 109.414 47.9521C110.036 47.5068 110.545 46.6924 110.944 45.5088L111.664 43.5752L104.879 24.7666H108.43L113.176 39.0225Z" fill="#666666"/>
</g>
<g filter="url(#filter1_d)">
<path d="M90.7717 13.2882C96.0668 25.5206 92.8898 7.9698 104.186 4.77875" stroke="#1BB1A5" stroke-width="3" stroke-linecap="round"/>
</g>
<defs>
<filter id="filter0_d" x="7.43005" y="15.417" width="117.656" height="41.0508" filterUnits="userSpaceOnUse" color-interpolation-filters="sRGB">
<feFlood flood-opacity="0" result="BackgroundImageFix"/>
<feColorMatrix in="SourceAlpha" type="matrix" values="0 0 0 0 0 0 0 0 0 0 0 0 0 0 0 0 0 0 127 0"/>
<feOffset dx="1" dy="2"/>
<feGaussianBlur stdDeviation="1.5"/>
<feColorMatrix type="matrix" values="0 0 0 0 0 0 0 0 0 0 0 0 0 0 0 0 0 0 0.2 0"/>
<feBlend mode="normal" in2="BackgroundImageFix" result="effect1_dropShadow"/>
<feBlend mode="normal" in="SourceGraphic" in2="effect1_dropShadow" result="shape"/>
</filter>
<filter id="filter1_d" x="85.2714" y="0.278362" width="26.415" height="25.79" filterUnits="userSpaceOnUse" color-interpolation-filters="sRGB">
<feFlood flood-opacity="0" result="BackgroundImageFix"/>
<feColorMatrix in="SourceAlpha" type="matrix" values="0 0 0 0 0 0 0 0 0 0 0 0 0 0 0 0 0 0 127 0"/>
<feOffset dx="1" dy="2"/>
<feGaussianBlur stdDeviation="2.5"/>
<feColorMatrix type="matrix" values="0 0 0 0 0 0 0 0 0 0 0 0 0 0 0 0 0 0 0.2 0"/>
<feBlend mode="normal" in2="BackgroundImageFix" result="effect1_dropShadow"/>
<feBlend mode="normal" in="SourceGraphic" in2="effect1_dropShadow" result="shape"/>
</filter>
</defs>
</svg>
