<svg width="200" height="199" viewBox="0 0 200 199" fill="none" xmlns="http://www.w3.org/2000/svg">
<g clip-path="url(#clip0)">
<path d="M99.8754 198.965C154.659 198.965 199.342 154.275 199.342 99.4826C199.342 44.6904 154.659 0.00111389 99.8754 0.00111389C45.0912 0.00111389 0.408325 44.6904 0.408325 99.4826C0.408325 154.275 45.0912 198.965 99.8754 198.965Z" fill="#1A91A1"/>
<path d="M46.1414 118.932C46.8563 118.932 47.5452 119.044 48.1913 119.25C49.7163 116.697 52.5041 114.988 55.6929 114.988C60.4592 114.988 64.3333 118.807 64.4231 123.553C64.5253 123.546 64.6282 123.543 64.7328 123.543C67.1942 123.543 69.1886 125.538 69.1886 127.999C69.1886 130.461 67.1942 132.455 64.7328 132.455C63.2338 132.455 61.9073 131.715 61.1003 130.58C59.6133 131.754 57.7351 132.455 55.6925 132.455C53.7809 132.455 52.013 131.84 50.575 130.798C49.388 131.83 47.837 132.455 46.1414 132.455C42.4079 132.455 39.3811 129.428 39.3811 125.693C39.3807 121.959 42.4079 118.932 46.1414 118.932Z" fill="white"/>
<path d="M168.541 83.4143C167.588 83.4143 166.671 83.5615 165.81 83.8355C163.779 80.4364 160.063 78.1592 155.816 78.1592C149.466 78.1592 144.306 83.2483 144.186 89.5701C144.05 89.5604 143.912 89.5557 143.774 89.5557C140.494 89.5557 137.838 92.213 137.838 95.492C137.838 98.7714 140.494 101.429 143.774 101.429C145.77 101.429 147.537 100.442 148.612 98.9304C150.593 100.495 153.096 101.429 155.816 101.429C158.363 101.429 160.718 100.61 162.634 99.2207C164.215 100.596 166.281 101.429 168.541 101.429C173.515 101.429 177.547 97.3958 177.547 92.4209C177.547 87.4468 173.515 83.4143 168.541 83.4143Z" fill="white"/>
<path d="M95.4568 16.5782L103.72 34.2988C102.665 46.3505 89.3493 60.4001 73.1968 66.7595C57.8046 72.8194 39.7152 71.6664 31.8115 64.1536L24.5123 46.4667L63.1642 43.3929L95.4568 16.5782Z" fill="#666666"/>
<path d="M1.04167 49.2876L0.849731 48.8143L47.5138 4.95157L111.541 3.73524L111.733 4.20895L65.7073 49.6405L1.04167 49.2876Z" fill="#C8CACC"/>
<path d="M27.1163 98.6094L23.9808 118.685C23.9303 119.01 25.0334 119.454 25.5595 118.8C26.2503 119.629 27.1661 119.289 27.4404 118.717C27.787 119.284 28.6049 119.598 29.1989 118.75C29.725 119.403 30.9004 118.948 30.8137 118.401L27.6995 98.5923C27.6203 98.2966 27.1575 98.3475 27.1163 98.6094Z" fill="#FF816F"/>
<path d="M0.849731 48.8151L47.2491 4.30066L111.541 3.73524L65.1408 48.2477L0.849731 48.8151Z" fill="#807D7D"/>
<path d="M56.4825 25.8996C56.777 25.6637 57.2067 25.7107 57.4426 26.0049C57.6781 26.299 57.6314 26.7281 57.3373 26.9639L26.1 52.1652L28.0241 98.6086C28.1666 98.958 27.998 99.357 27.6483 99.4985C27.2994 99.6415 26.9004 99.4732 26.7574 99.1239L24.643 52.2107C24.5322 51.9371 24.6072 51.6134 24.8481 51.4206L56.4825 25.8996Z" fill="white"/>
<path d="M27.3988 95.4613C29.1154 95.4613 30.5064 96.8521 30.5064 98.5682C30.5064 100.285 29.1154 101.676 27.3988 101.676C25.6822 101.676 24.2916 100.285 24.2916 98.5682C24.2916 96.8518 25.6822 95.4613 27.3988 95.4613Z" fill="#FFBA1B"/>
<path d="M29.9174 97.7762C29.9174 99.0773 29.0913 100.184 27.935 100.601C27.6172 100.715 27.2745 100.777 26.9174 100.777C26.898 100.777 26.8786 100.777 26.8592 100.776C25.8365 100.756 24.939 100.226 24.4121 99.4286C24.7249 100.515 25.6147 101.359 26.7302 101.604C26.9454 101.651 27.1688 101.676 27.3988 101.676C27.637 101.676 27.8686 101.649 28.0912 101.599C29.4748 101.284 30.5056 100.047 30.5056 98.5686C30.5056 97.6814 30.1342 96.8813 29.5389 96.3155C29.7798 96.7476 29.9174 97.2458 29.9174 97.7762Z" fill="#F5A209"/>
<path d="M79.1411 92.035L94.8375 82.2321C97.0339 82.2764 97.6894 85.8885 96.0556 87.9298L82.1819 96.9582L79.1411 92.035Z" fill="#F0B97D"/>
<path d="M84.2066 75.8692L72.5868 93.9516L80.3114 118.452L84.4447 103.045L81.1794 92.9657L88.4607 79.9242C89.9729 76.5858 86.3506 73.0926 84.2066 75.8692Z" fill="#FED198"/>
<path d="M110.563 105.814L109.249 114.205L108.733 117.501L95.3411 112.776L111.246 136.511L115.239 168.898C115.785 168.447 114.87 139.322 115.341 138.63C117.148 135.97 118.402 131.488 119.02 124.919L118.921 113.674L118.821 107.703L120.178 101.313C116.805 99.448 111.879 101.313 110.563 105.814Z" fill="#F0B97D"/>
<path d="M80.0208 120.238L84.6965 97.7498L100.068 91.5302C101.941 92.5725 102.633 93.6225 101.122 96.7861L93.3521 100.834L95.341 112.776C109.078 120.173 113.474 128.901 112.621 139.748C113.095 149.266 114.765 159.381 115.239 168.898L92.1577 169.496L97.3307 144.619L80.0208 120.238Z" fill="#FED198"/>
<path d="M73.0049 73.3724L73.1879 93.0159L78.3963 84.9104L77.7809 74.6657C77.7809 74.6661 76.039 70.5861 73.0049 73.3724Z" fill="#FED198"/>
<path d="M84.4832 163.288H125.237L126.058 195.472C117.714 197.743 108.937 198.962 99.8745 198.962C94.3339 198.962 88.9017 198.502 83.6082 197.632L84.4832 163.288Z" fill="#20D0C2"/>
<path d="M88.6573 163.288H121.063V155.462H88.6573V163.288Z" fill="white"/>
<path d="M73.1941 76.4894L73.1218 73.4587C73.1218 73.4587 74.505 73.1287 74.6181 73.8271C74.7316 74.5246 74.7148 76.4618 74.7148 76.4618L73.1941 76.4894Z" fill="white"/>
<path d="M83.1598 77.9311L84.9564 75.4891C84.9564 75.4891 86.2526 76.0743 85.915 76.6961C85.5773 77.3171 84.3798 78.84 84.3798 78.84L83.1598 77.9311Z" fill="white"/>
<path d="M97.2694 93.129L100.008 91.8287C100.008 91.8287 100.872 92.9584 100.282 93.3458C99.69 93.7336 97.914 94.507 97.914 94.507L97.2694 93.129Z" fill="white"/>
<path d="M97.3541 65.6248L157.271 27.595C164.436 25.3423 169.973 39.7035 165.502 42.1863L107.215 80.462C103.905 82.6417 99.0559 77.6229 97.4544 71.9921C96.6042 69.0014 97.4485 68.9066 100.593 66.7763L97.3541 65.6248Z" fill="white"/>
<path d="M136.678 40.6731C141.677 40.279 147.728 50.9936 146.077 54.9422L138.021 60.2322C138.402 54.4797 132.896 46.2806 127.819 46.2996L136.678 40.6731Z" fill="#FFBA1B"/>
<path d="M157.519 60.4168L146.077 54.9425L138.021 60.2326L147.297 67.1155L149.548 61.2748L157.519 60.4168Z" fill="#F5A209"/>
<path d="M100.208 67.0498L100.593 66.7759C103.376 66.7137 110.195 75.2012 105.559 78.4724C102.26 80.7994 98.7847 73.2892 98.3274 70.6432C99.6344 69.1732 102.381 73.508 101.867 73.7357L100.835 74.1927C100.835 74.1927 101.332 76.2484 102.412 76.1544L106.284 73.8601C106.284 73.8605 104.573 67.8546 100.208 67.0498Z" fill="#DFE1E3"/>
</g>
<defs>
<clipPath id="clip0">
<rect width="198.934" height="198.964" fill="white" transform="translate(0.408325)"/>
</clipPath>
</defs>
</svg>
