<svg width="25" height="25" viewBox="0 0 25 25" fill="none" xmlns="http://www.w3.org/2000/svg">
<g clip-path="url(#clip0)">
<path d="M0.463529 15.138C0.514466 15.1533 0.570497 15.1584 0.621434 15.1584C0.840465 15.1584 1.04931 15.0412 1.16646 14.8426C3.56051 10.6249 6.05644 10.3397 8.90383 10.3193V12.8458C8.90383 13.0801 9.03627 13.2941 9.24511 13.401C9.45395 13.508 9.70355 13.4876 9.89201 13.3552L17.6752 7.76227C17.8382 7.64512 17.935 7.45665 17.935 7.2529C17.935 7.04915 17.8382 6.86069 17.6752 6.74353L9.89201 1.18118C9.70355 1.04365 9.45395 1.02837 9.24511 1.13534C9.03627 1.24231 8.90892 1.45624 8.90892 1.69055V4.25779C5.33313 4.56341 2.79136 5.9591 1.36002 8.40918C0.142624 10.4874 0 12.9018 0 14.5369C0 14.8171 0.193562 15.0667 0.463529 15.138ZM9.56092 5.465C9.89201 5.44972 10.1518 5.17466 10.1518 4.84357V2.90795L16.2388 7.26309L10.1518 11.6335V9.69789C10.1518 9.53489 10.0856 9.37189 9.96842 9.25474C9.85126 9.13758 9.69336 9.07136 9.52526 9.07136C6.78484 9.07136 3.96801 9.07136 1.3804 12.2855C1.82865 9.06627 3.55033 5.76553 9.56092 5.465Z" fill="#59687D"/>
<path d="M20.5735 7.88962H23.752V22.6818H6.10734V13.7219C6.10734 13.3756 5.82718 13.0954 5.48081 13.0954C5.13444 13.0954 4.85938 13.3807 4.85938 13.7219V23.3083C4.85938 23.6547 5.13953 23.9349 5.4859 23.9349H24.3734C24.7198 23.9349 24.9999 23.6547 24.9999 23.3083V7.26309C24.9999 6.91672 24.7198 6.63657 24.3734 6.63657H20.5684C20.222 6.63657 19.9419 6.91672 19.9419 7.26309C19.947 7.60947 20.2271 7.88962 20.5735 7.88962Z" fill="#59687D"/>
</g>
<defs>
<clipPath id="clip0">
<rect width="25" height="25" fill="white"/>
</clipPath>
</defs>
</svg>
