<svg width="25" height="25" viewBox="0 0 25 25" fill="none" xmlns="http://www.w3.org/2000/svg">
<g clip-path="url(#clip0)">
<path d="M24.2581 8.9089L21.1849 6.34413V2.70548C21.1849 2.39131 20.9107 2.15139 20.5908 2.15139H16.1182L14.3246 0.654805C13.2678 -0.219157 11.737 -0.219157 10.6802 0.660518L8.88661 2.15139H4.35686C4.04269 2.15139 3.76279 2.38559 3.76279 2.70548V6.40125L0.746767 8.9089C0.621099 9.01743 0.546841 9.18308 0.552553 9.34873H0.563978V22.1383C0.563978 23.7148 1.83208 25.0001 3.40293 25.0001H21.5962C23.1727 25.0001 24.4351 23.7091 24.4351 22.1383V9.34873H24.4466C24.458 9.17737 24.3894 9.01743 24.2581 8.9089ZM21.1849 7.82929L22.9842 9.32588L21.1849 10.6625V7.82929ZM11.4114 1.53448C12.0454 1.00896 12.9651 1.01467 13.5991 1.54019L14.3246 2.15139H10.6745L11.4114 1.53448ZM4.90523 3.29383H20.0425V11.5136L13.5363 16.3576C12.9194 16.8088 12.0854 16.8088 11.4742 16.3576L4.90523 11.4679V3.29383ZM3.76279 7.8807V10.6168L2.02058 9.32017L3.76279 7.8807ZM23.2984 22.1326C23.3041 23.0808 22.5444 23.8519 21.6019 23.8577H3.40293C2.46042 23.8519 1.7007 23.0808 1.70641 22.1383V10.4855L10.8002 17.2772C11.8112 18.0255 13.1936 18.0255 14.2046 17.2772L23.2984 10.4855V22.1326Z" fill="#59687D"/>
<path d="M12.0454 7.86354H8.9608C8.64663 7.86354 8.38959 8.12059 8.38959 8.43476C8.38959 8.74893 8.64663 9.00597 8.9608 9.00597H12.0454C12.3595 9.00597 12.6166 8.74893 12.6166 8.43476C12.6166 8.12059 12.3595 7.86354 12.0454 7.86354Z" fill="#59687D"/>
<path d="M16.0439 10.7196H8.9608C8.64663 10.7196 8.38959 10.9767 8.38959 11.2909C8.38959 11.605 8.64663 11.8621 8.9608 11.8621H16.0439C16.3581 11.8621 16.6151 11.605 16.6151 11.2909C16.6151 10.9767 16.3581 10.7196 16.0439 10.7196Z" fill="#59687D"/>
</g>
<defs>
<clipPath id="clip0">
<rect width="25" height="25" fill="white"/>
</clipPath>
</defs>
</svg>
