<svg width="25" height="25" viewBox="0 0 25 25" fill="none" xmlns="http://www.w3.org/2000/svg">
<path d="M0 23.7625C0 24.2219 0.372559 24.5944 0.831987 24.5944H24.168C24.6274 24.5944 25 24.2219 25 23.7625V1.23745C25 0.778107 24.6274 0.405548 24.168 0.405548H0.831987C0.372559 0.405548 0 0.778107 0 1.23745V23.7625ZM1.66389 2.06944H23.3362V15.5054H11.9592V12.5657L15.1519 9.39881C15.3089 9.243 15.3975 9.03114 15.3979 8.80993C15.3983 8.58871 15.3107 8.37642 15.1542 8.21986L15.1314 8.19705L19.8628 4.64856C20.2303 4.37289 20.3048 3.85134 20.0292 3.48375C19.7535 3.11624 19.2321 3.04174 18.8644 3.31733L13.9428 7.00841L13.7816 6.84713C13.5128 6.57853 13.096 6.52609 12.7691 6.71977L11.1092 7.7037C11.1973 7.39343 11.2455 7.06657 11.2455 6.72836C11.2455 4.7558 9.64066 3.151 7.6681 3.151C5.69545 3.151 4.09074 4.7558 4.09074 6.72836C4.09074 7.54654 4.36742 8.30083 4.83123 8.9042C4.01355 9.618 3.79217 10.701 3.70227 11.1422C3.46869 12.2885 3.43687 13.7824 3.43249 15.5055H1.66389V2.06944ZM7.66818 8.64183C6.61305 8.64183 5.75471 7.78349 5.75471 6.72836C5.75471 5.67331 6.61305 4.81498 7.66818 4.81498C8.72323 4.81498 9.58157 5.67331 9.58157 6.72836C9.58157 7.78349 8.72323 8.64183 7.66818 8.64183ZM5.33266 11.4744C5.45101 10.8936 5.60943 10.5328 5.78864 10.3056H9.75455C9.9037 10.3056 10.0503 10.2655 10.1787 10.1894L13.0617 8.48046L13.387 8.80572L10.5413 11.6284C10.3838 11.7847 10.2952 11.9973 10.2952 12.2191V15.5053H5.0963C5.10051 13.8742 5.12946 12.4714 5.33266 11.4744ZM23.3361 17.1693V22.9305H1.66389V17.1693H23.3361Z" fill="#59687D"/>
<path d="M21.7174 19.1243H6.74371V18.8683C6.74371 18.4089 6.37123 18.0363 5.91172 18.0363C5.45229 18.0363 5.07982 18.4089 5.07982 18.8683V19.1243H3.28234C2.82291 19.1243 2.45044 19.4969 2.45044 19.9563C2.45044 20.4157 2.82291 20.7883 3.28234 20.7883H5.07982V21.0443C5.07982 21.5037 5.45229 21.8762 5.91172 21.8762C6.37123 21.8762 6.74371 21.5037 6.74371 21.0443V20.7883H21.7174C22.177 20.7883 22.5494 20.4157 22.5494 19.9563C22.5494 19.4969 22.177 19.1243 21.7174 19.1243Z" fill="#59687D"/>
</svg>
