<svg width="25" height="24" viewBox="0 0 25 24" fill="none" xmlns="http://www.w3.org/2000/svg">
<g clip-path="url(#clip0)">
<path d="M5.37051 22.3135C5.39873 22.9412 5.95322 23.4365 6.62754 23.4365H18.3729C19.0472 23.4365 19.6017 22.9412 19.6299 22.3135L20.4687 5.82019H4.53174L5.37051 22.3135ZM15.1571 9.91684C15.1571 9.65403 15.3859 9.44088 15.6682 9.44088H16.4855C16.7676 9.44088 16.9966 9.65398 16.9966 9.91684V19.3399C16.9966 19.6027 16.7678 19.8158 16.4855 19.8158H15.6682C15.386 19.8158 15.1571 19.6028 15.1571 19.3399V9.91684ZM11.5806 9.91684C11.5806 9.65403 11.8093 9.44088 12.0915 9.44088H12.9089C13.191 9.44088 13.4199 9.65398 13.4199 9.91684V19.3399C13.4199 19.6027 13.1912 19.8158 12.9089 19.8158H12.0915C11.8094 19.8158 11.5806 19.6028 11.5806 19.3399V9.91684ZM8.00385 9.91684C8.00385 9.65403 8.23263 9.44088 8.51483 9.44088H9.33224C9.61439 9.44088 9.84322 9.65398 9.84322 9.91684V19.3399C9.84322 19.6027 9.61445 19.8158 9.33224 19.8158H8.51483C8.23269 19.8158 8.00385 19.6028 8.00385 19.3399V9.91684Z" fill="#A2A6A9"/>
<path d="M21.0271 1.34934H15.6086V0.395138C15.6086 0.259631 15.4907 0.149719 15.3451 0.149719H9.6551C9.50962 0.149719 9.39168 0.259631 9.39168 0.395138V1.34928H3.9731C3.53704 1.34928 3.18359 1.67856 3.18359 2.08474V4.3951H21.8166V2.0848C21.8166 1.67862 21.4632 1.34934 21.0271 1.34934Z" fill="#A2A6A9"/>
</g>
<defs>
<clipPath id="clip0">
<rect width="25" height="23.2868" fill="white" transform="translate(0 0.149719)"/>
</clipPath>
</defs>
</svg>
