<svg width="29" height="29" viewBox="0 0 29 29" fill="none" xmlns="http://www.w3.org/2000/svg">
<g clip-path="url(#clip0)">
<path d="M14.5 0C6.49196 0 0 6.49196 0 14.5C0 22.508 6.49196 29 14.5 29C14.9368 29 15.372 28.9804 15.8051 28.9415C16.2077 28.9054 16.6068 28.8501 17.0028 28.781L17.155 28.7541C24.5176 27.3801 29.6226 20.625 28.9339 13.1668C28.2453 5.70867 21.9898 0.00236003 14.5 0V0ZM13.3351 27.9821H13.3009C12.9249 27.9488 12.5518 27.8986 12.182 27.8341C12.1607 27.8304 12.1395 27.828 12.1187 27.824C11.7572 27.7593 11.3994 27.6791 11.0452 27.5854L10.9595 27.5635C10.614 27.4698 10.2723 27.361 9.93548 27.2401C9.90055 27.2276 9.86538 27.2165 9.83045 27.2035C9.50029 27.0822 9.17602 26.9463 8.85671 26.7993C8.81706 26.7816 8.77741 26.7646 8.73776 26.7457C8.42459 26.6008 8.11755 26.4375 7.81641 26.2657C7.77393 26.2416 7.73097 26.2175 7.68849 26.1937C7.39207 26.0207 7.1025 25.8352 6.81835 25.6393C6.7754 25.6094 6.73198 25.5803 6.68926 25.5503C6.41007 25.3523 6.13796 25.1421 5.87293 24.9221L5.8 24.8584V20.7833C5.80354 17.8484 8.18174 15.4702 11.1167 15.4667H17.8833C20.8183 15.4702 23.1965 17.8484 23.2 20.7833V24.8589L23.1358 24.9124C22.8656 25.1381 22.5883 25.3514 22.3034 25.5529C22.2657 25.5794 22.2274 25.6046 22.1899 25.6306C21.9025 25.8302 21.6079 26.0181 21.3063 26.1946C21.2686 26.2166 21.2299 26.2374 21.1923 26.2591C20.8867 26.433 20.5759 26.5973 20.2589 26.7452C20.2226 26.7622 20.186 26.778 20.1492 26.7936C19.8273 26.9421 19.5002 27.0787 19.1677 27.201C19.1346 27.2132 19.1013 27.2238 19.0709 27.2354C18.7325 27.3567 18.3893 27.4665 18.0419 27.5606L17.9586 27.5814C17.6039 27.6751 17.2459 27.7558 16.8839 27.8207C16.8631 27.8245 16.8423 27.8271 16.8216 27.8304C16.4513 27.895 16.0777 27.9453 15.7015 27.9788H15.6673C15.2807 28.0121 14.8939 28.03 14.5024 28.03C14.1108 28.03 13.721 28.0154 13.3351 27.9821ZM24.1667 23.9628V20.7833C24.1627 17.3148 21.3519 14.504 17.8833 14.5H11.1167C7.64814 14.504 4.83735 17.3148 4.83333 20.7833V23.9623C-0.372412 18.6492 -0.314356 10.1306 4.96314 4.88879C10.2406 -0.352824 18.7594 -0.352824 24.0369 4.88879C29.3144 10.1306 29.3724 18.6492 24.1667 23.9623V23.9628Z" fill="#E8EFFD"/>
<path d="M14.5001 3.86667C11.8307 3.86667 9.66675 6.03058 9.66675 8.7C9.66675 11.3694 11.8307 13.5333 14.5001 13.5333C17.1695 13.5333 19.3334 11.3694 19.3334 8.7C19.3306 6.03176 17.1683 3.8695 14.5001 3.86667ZM14.5001 12.5667C12.3645 12.5667 10.6334 10.8356 10.6334 8.7C10.6334 6.56442 12.3645 4.83334 14.5001 4.83334C16.6357 4.83334 18.3667 6.56442 18.3667 8.7C18.3644 10.8344 16.6345 12.5643 14.5001 12.5667Z" fill="#E8EFFD"/>
</g>
<defs>
<clipPath id="clip0">
<rect width="29" height="29" fill="white"/>
</clipPath>
</defs>
</svg>
